<svg xmlns="http://www.w3.org/2000/svg" xmlns:xlink="http://www.w3.org/1999/xlink" viewBox="0 0 428.52 97.5"><defs><clipPath id="a833d2a1-8006-4163-99a1-523090f92f59"><rect x="80.19" y="25.48" width="72" height="72" style="fill:none"/></clipPath><clipPath id="bf7d7bc5-2c3d-41b0-a0b5-d873fbddd060"><rect x="83.06" y="73.66" width="41.33" height="23.82" style="fill:none"/></clipPath></defs><title>Asset 1kortgo-logo</title><g id="a8fb866b-6e7b-4ead-8be9-584a9affa6c9" data-name="Layer 2"><g id="bfdcdb28-cebd-4ec8-b6e0-a245573ecfad" data-name="Layer 1"><g style="clip-path:url(#a833d2a1-8006-4163-99a1-523090f92f59)"><path d="M152.21,61.5v.14a35.74,35.74,0,0,1-2.09,12c-.18.51-.37,1-.57,1.5A36.11,36.11,0,0,1,128,95.54a34.91,34.91,0,0,1-3.86,1.09l-.08,0a34.67,34.67,0,0,1-4.47.7c-1.1.1-2.22.15-3.35.15a36,36,0,0,1-10.59-1.58c-.85-.26-1.69-.55-2.51-.87A36.11,36.11,0,0,1,85.43,80.18a37.07,37.07,0,0,1-1.86-3.46,36,36,0,0,1-3.36-14.41V60.7A35.88,35.88,0,0,1,92.08,34.79c.57-.52,1.15-1,1.75-1.49.36-.28.72-.56,1.09-.83A36.54,36.54,0,0,1,98.8,30a36,36,0,0,1,48.93,14.11,34.68,34.68,0,0,1,2.19,4.75c0,.11.08.23.13.34h0c.28.78.54,1.56.78,2.37a36.62,36.62,0,0,1,1.35,8.31C152.2,60.41,152.21,61,152.21,61.5Z" style="fill:#b4cd29"/></g><path d="M100.66,90.43a.58.58,0,0,0,0-1.16A.58.58,0,0,0,100.66,90.43Z" style="fill:#80bb38"/><path d="M96.68,88a.58.58,0,0,0,0-1.16A.58.58,0,0,0,96.68,88Z" style="fill:#80bb38"/><path d="M100.28,85.81a.58.58,0,0,0,0-1.15A.58.58,0,0,0,100.28,85.81Z" style="fill:#80bb38"/><path d="M94,82.6h-.13a.58.58,0,0,0-.57.58.59.59,0,0,0,.57.58H94a.59.59,0,0,0,.58-.58A.59.59,0,0,0,94,82.6Z" style="fill:#80bb38"/><path d="M97.45,82.09a.58.58,0,0,0,0-1.15A.58.58,0,0,0,97.45,82.09Z" style="fill:#80bb38"/><path d="M90,79.53a.58.58,0,0,0,0-1.16A.58.58,0,0,0,90,79.53Z" style="fill:#80bb38"/><path d="M86.17,76.32a.58.58,0,0,0,0-1.15A.58.58,0,0,0,86.17,76.32Z" style="fill:#80bb38"/><path d="M105.15,89.79a.58.58,0,0,0,0-1.16A.58.58,0,0,0,105.15,89.79Z" style="fill:#80bb38"/><path d="M103.48,92.73a.58.58,0,0,0,0-1.15A.58.58,0,0,0,103.48,92.73Z" style="fill:#80bb38"/><path d="M113.73,95a.58.58,0,0,0,0-1.15A.58.58,0,0,0,113.73,95Z" style="fill:#80bb38"/><path d="M119.12,94.4a.58.58,0,0,0,0-1.16A.58.58,0,0,0,119.12,94.4Z" style="fill:#80bb38"/><path d="M123.48,95.17a.58.58,0,0,0,0-1.15A.58.58,0,0,0,123.48,95.17Z" style="fill:#80bb38"/><path d="M89.82,82.16v.12a.59.59,0,0,0,.58.58.59.59,0,0,0,.58-.58v-.12a.58.58,0,0,0-.58-.58A.59.59,0,0,0,89.82,82.16Z" style="fill:#80bb38"/><path d="M93,78.44v.13a.59.59,0,0,0,.58.58.6.6,0,0,0,.58-.58v-.13a.59.59,0,0,0-.58-.58A.58.58,0,0,0,93,78.44Z" style="fill:#80bb38"/><path d="M84.12,72.09a.58.58,0,0,0,0-1.15A.58.58,0,0,0,84.12,72.09Z" style="fill:#80bb38"/><path d="M109.19,91.26v-.12a.58.58,0,0,0-.58-.58.59.59,0,0,0-.58.58v.12a.58.58,0,0,0,1.16,0Z" style="fill:#80bb38"/><path d="M149.92,48.84a11.3,11.3,0,0,0-1.1-.42,19.66,19.66,0,0,0-15.14,1,35.83,35.83,0,0,0-4.9,3.15c-3,2.14-6.06,4.36-10.11,5a17.83,17.83,0,0,1-16.07-5.25c-4.57-4.7-7.39-12.24-7.68-19.82A36.41,36.41,0,0,1,98.79,30c-.23,6.67,1.76,14.68,6.57,19.61a13.9,13.9,0,0,0,12.73,4.13c3.12-.48,5.71-2.33,8.44-4.29A38.15,38.15,0,0,1,132,46a23.66,23.66,0,0,1,15.76-1.87A34.68,34.68,0,0,1,149.92,48.84Z" style="fill:#fff"/><g style="clip-path:url(#bf7d7bc5-2c3d-41b0-a0b5-d873fbddd060)"><path d="M124,96.65a36.66,36.66,0,0,1-4.48.7c-.32-.44-.62-.9-.88-1.34a31.8,31.8,0,0,1-2.19-4.78,24.85,24.85,0,0,0-2-4.44,19.19,19.19,0,0,0-5.88-6c-7-4.46-15.43-3-23.13-.67a32.7,32.7,0,0,1-1.85-3.46c8.5-2.69,18.5-4.56,27.05.88a23.16,23.16,0,0,1,7.07,7.14,29.34,29.34,0,0,1,2.38,5.1A28.88,28.88,0,0,0,122,94,13.05,13.05,0,0,0,124,96.65Z" style="fill:#fff"/></g><path d="M71.52,84.56A7,7,0,0,1,73,89a6.06,6.06,0,0,1-2.23,4.85,7.58,7.58,0,0,1-5,1.88A6,6,0,0,1,61,93.31L28.35,51.23,13.29,65.48v23.4a6.41,6.41,0,0,1-1.87,4.7,6.56,6.56,0,0,1-4.84,1.88,6.34,6.34,0,0,1-4.77-1.88A6.52,6.52,0,0,1,0,88.88V7.81A6.21,6.21,0,0,1,1.88,3.25a6.5,6.5,0,0,1,4.83-1.9,6.45,6.45,0,0,1,4.77,1.82,6.28,6.28,0,0,1,1.81,4.64V49.63L61,3.38a7.73,7.73,0,0,1,5.11-2.3,5.31,5.31,0,0,1,4.16,2A6.48,6.48,0,0,1,72,7.4a6.42,6.42,0,0,1-1.87,4.16L38.31,41.69Z"/><path d="M196.93,23.4a10.14,10.14,0,0,1,6,1.81,5.38,5.38,0,0,1,2.56,4.5,6.66,6.66,0,0,1-1.69,4.92,5.52,5.52,0,0,1-4.08,1.68,12.71,12.71,0,0,1-3.63-.81,15.44,15.44,0,0,0-4.44-.94,13.69,13.69,0,0,0-8.14,2.9,21.24,21.24,0,0,0-6.46,7.92,25,25,0,0,0-2.48,11.22V89a6.37,6.37,0,0,1-1.81,4.58,6.19,6.19,0,0,1-4.65,1.88,6.09,6.09,0,0,1-4.56-1.81A6.41,6.41,0,0,1,161.85,89V31.46a6.31,6.31,0,0,1,1.81-4.56,6,6,0,0,1,4.5-1.88,6.19,6.19,0,0,1,4.65,1.88,6.31,6.31,0,0,1,1.81,4.56v6.85a25.32,25.32,0,0,1,8.88-10.66A23.74,23.74,0,0,1,196.93,23.4Z"/><path d="M236.45,37.52V77.58q0,6.72,6.06,6.71a9.65,9.65,0,0,0,2.54-.46,10.17,10.17,0,0,1,2.57-.48,3.72,3.72,0,0,1,3,1.48,5.81,5.81,0,0,1,1.2,3.77c0,1.88-1.07,3.49-3.23,4.84a13.35,13.35,0,0,1-7.25,2,33,33,0,0,1-8.14-.94,12,12,0,0,1-6.58-4.77q-2.91-3.82-2.9-11.62V37.52h-7.79A5.78,5.78,0,0,1,210,31.6a5.47,5.47,0,0,1,1.69-4.16,5.82,5.82,0,0,1,4.23-1.63h7.79V14.52A6.31,6.31,0,0,1,225.49,10a6.22,6.22,0,0,1,4.65-1.88,6,6,0,0,1,4.5,1.88,6.31,6.31,0,0,1,1.81,4.56V25.81h11.17a5.76,5.76,0,0,1,5.91,5.92,5.58,5.58,0,0,1-1.68,4.19,5.86,5.86,0,0,1-4.23,1.6Z"/><path d="M339.11,46a6,6,0,0,1,4.52,1.9,6.32,6.32,0,0,1,1.82,4.56V82.69a6.32,6.32,0,0,1-3.23,5.64,52,52,0,0,1-13.59,6.27,52.85,52.85,0,0,1-15.18,2.21,48.55,48.55,0,0,1-24.67-6.46A47.8,47.8,0,0,1,264.63,48.4,47.86,47.86,0,0,1,288.78,6.46,48.65,48.65,0,0,1,313.45,0a56,56,0,0,1,13,1.48,39.6,39.6,0,0,1,11.2,4.44,6.39,6.39,0,0,1,2.42,2.29,5.66,5.66,0,0,1,.81,3,6.58,6.58,0,0,1-1.81,4.64,5.79,5.79,0,0,1-4.37,1.94,6.29,6.29,0,0,1-3.48-.94,42,42,0,0,0-17.75-4A34.37,34.37,0,0,0,283.11,30.4a36,36,0,0,0-4.62,18,35.66,35.66,0,0,0,4.62,17.95,35,35,0,0,0,12.65,12.9A33.88,33.88,0,0,0,313.45,84a46.45,46.45,0,0,0,9.6-1.06,39.4,39.4,0,0,0,8.69-2.83V58.75H315.47a6.39,6.39,0,0,1-4.59-1.81,6,6,0,0,1-1.87-4.5,6.16,6.16,0,0,1,1.87-4.63A6.37,6.37,0,0,1,315.47,46Z" style="fill:#b4cd29"/><path d="M428.52,60.23a37.68,37.68,0,0,1-4.71,18.83A34.13,34.13,0,0,1,411,92.1a36.54,36.54,0,0,1-35.89,0,34.06,34.06,0,0,1-12.83-13,37.67,37.67,0,0,1-4.69-18.83,38.35,38.35,0,0,1,4.69-18.94A33.91,33.91,0,0,1,375.06,28.1a36.61,36.61,0,0,1,35.89,0,34,34,0,0,1,12.86,13.19A38.37,38.37,0,0,1,428.52,60.23Zm-12.77,0a27.13,27.13,0,0,0-3.05-13,22.23,22.23,0,0,0-8.18-8.87,22.44,22.44,0,0,0-23,0,22.18,22.18,0,0,0-8.19,8.87,27.23,27.23,0,0,0-3,13,26.56,26.56,0,0,0,3,12.77,22.48,22.48,0,0,0,8.19,8.81,22.44,22.44,0,0,0,23,0A22.53,22.53,0,0,0,412.7,73,26.46,26.46,0,0,0,415.75,60.23Z" style="fill:#b4cd29"/></g></g></svg>